<svg id="Layer_1" data-name="Layer 1" xmlns="http://www.w3.org/2000/svg" viewBox="0 0 493 388"><title>know</title><rect x="1" y="1" width="491" height="386" style="fill:none;stroke:#000;stroke-miterlimit:10;stroke-width:2px"/><rect x="1.5" y="1.38" width="287.46" height="224.62" style="fill:none;stroke:#000;stroke-miterlimit:10"/><rect x="1.61" y="1.38" width="177.4" height="138.62" style="fill:none;stroke:#000;stroke-miterlimit:10"/><text transform="translate(325.84 321.57)" style="font-size:17px;font-family:Montserrat">What <tspan x="49.62" y="0">y</tspan><tspan x="57.73" y="0">ou don’t</tspan><tspan x="-50.71" y="20.4">kn</tspan><tspan x="-29.95" y="20.4">o</tspan><tspan x="-19.77" y="20.4">w </tspan><tspan x="-0.54" y="20.4">y</tspan><tspan x="7.56" y="20.4">ou don’t kn</tspan><tspan x="102.03" y="20.4">o</tspan><tspan x="112.22" y="20.4">w</tspan></text><text transform="translate(139.22 184.97)" style="font-size:17px;font-family:Montserrat">What <tspan x="49.62" y="0">y</tspan><tspan x="57.73" y="0">ou kn</tspan><tspan x="104.6" y="0">o</tspan><tspan x="114.78" y="0">w</tspan><tspan x="2.02" y="20.4">y</tspan><tspan x="10.13" y="20.4">ou don’t kn</tspan><tspan x="104.6" y="20.4">o</tspan><tspan x="114.78" y="20.4">w</tspan></text><text transform="translate(25.63 76.5)" style="font-size:17px;font-family:Montserrat">What <tspan x="49.62" y="0">y</tspan><tspan x="57.73" y="0">ou kn</tspan><tspan x="104.6" y="0">o</tspan><tspan x="114.78" y="0">w</tspan></text></svg>