<svg xmlns="http://www.w3.org/2000/svg" viewBox="0 0 447.7 86.8">
  <path fill="#222" d="M23.7 55a17 17 0 0 0-.2 1.7 2.4 2.4 0 0 0 .7 2 3.4 3.4 0 0 0 2.2.6 9.6 9.6 0 0 0 3-.5l4-1.4 2 14.5a27 27 0 0 1-7.3 2.3 42.3 42.3 0 0 1-8 .8q-8 0-12.4-3.8A13.4 13.4 0 0 1 3 60.5a20 20 0 0 1 .4-4l4-21H0l2.6-13H10l3-15h20.2l-3 15h13.4l-2.6 13H27.6zM91.8 22.2a22.5 22.5 0 0 1 9.6 8.8 25.5 25.5 0 0 1 3.3 13.2 30.4 30.4 0 0 1-4.2 16 28.6 28.6 0 0 1-11.8 11 37.5 37.5 0 0 1-17.2 3.7 32.6 32.6 0 0 1-14.7-3.2 22.3 22.3 0 0 1-9.6-8.8A25.8 25.8 0 0 1 44 49.7a30.2 30.2 0 0 1 4-16A28.6 28.6 0 0 1 60 23 37.5 37.5 0 0 1 77 19a32.6 32.6 0 0 1 14.7 3.2zM67.5 39a15.2 15.2 0 0 0-3 9.8 11.7 11.7 0 0 0 2.3 7.7 7.8 7.8 0 0 0 6.3 2.8 10 10 0 0 0 8-3.7q3.2-3.8 3.2-10a12 12 0 0 0-2.4-7.6 7.8 7.8 0 0 0-6.3-3 9.8 9.8 0 0 0-8 4zM156.6 22.2a22.5 22.5 0 0 1 9.6 8.8 25.5 25.5 0 0 1 3.4 13.2 30.4 30.4 0 0 1-4.2 16 28.6 28.6 0 0 1-11.8 11 37.5 37.5 0 0 1-17.2 3.7 32.6 32.6 0 0 1-14.7-3.2A22.3 22.3 0 0 1 112 63a25.8 25.8 0 0 1-3.2-13.3 30.2 30.2 0 0 1 4.2-16A28.6 28.6 0 0 1 124.7 23a37.5 37.5 0 0 1 17.3-4 32.6 32.6 0 0 1 14.6 3.2zM132.4 39a15.2 15.2 0 0 0-3 9.8 11.7 11.7 0 0 0 2.2 7.7 7.8 7.8 0 0 0 6.4 2.8 10 10 0 0 0 8-3.7q3-3.8 3-10a12 12 0 0 0-2.3-7.6 7.8 7.8 0 0 0-6.3-3 9.8 9.8 0 0 0-8 4zM207.8 0L193 74.4h-20.2L187.6 0h20.2z"/>
  <path fill="#e33b3b" d="M253.5 55a16.7 16.7 0 0 0-.2 1.7 2.4 2.4 0 0 0 .8 2 3.4 3.4 0 0 0 2.2.6 9.6 9.6 0 0 0 3-.5l4-1.4 2 14.5a26.8 26.8 0 0 1-7.3 2.3 42.3 42.3 0 0 1-8.2.8q-8 0-12.4-3.8a13.4 13.4 0 0 1-4.5-10.7 20 20 0 0 1 .2-4l4.2-21h-7.6l2.6-13h7.5l3-15h20l-3 15h13.4l-2.6 13h-13.4zM308 0l-15 74.3h-20L287.6 0H308zM320.4 58.4a8 8 0 0 1 2.4 6.3q0 4-3.2 8.2l-10 13.8H300l7-14a7 7 0 0 1-3-6 10.3 10.3 0 0 1 3-7.6 10 10 0 0 1 7.2-3 8.8 8.8 0 0 1 6.2 2.2zm6-29.6a8.2 8.2 0 0 1 2.4 6 10.2 10.2 0 0 1-3 7.6 10 10 0 0 1-7.3 3A8 8 0 0 1 310 37a9.8 9.8 0 0 1 10.2-10.4 8.6 8.6 0 0 1 6.2 2.2zM341.7 72a20 20 0 0 1-7.3-8.4 28 28 0 0 1-2.6-12.4 35.2 35.2 0 0 1 3.7-16.2 29.5 29.5 0 0 1 10.3-11.6 25.8 25.8 0 0 1 14.4-4.3 20 20 0 0 1 9.7 2.4 15.8 15.8 0 0 1 6.3 6.5l5.5-28H402l-14.8 74.2H367l1.2-6a22.2 22.2 0 0 1-15.8 6.7 19.5 19.5 0 0 1-10.7-3zm24.7-14a13.5 13.5 0 0 0 4.3-5.4 16.3 16.3 0 0 0 1.7-7.2 10.6 10.6 0 0 0-2.3-7 7.7 7.7 0 0 0-6-2.8 9.6 9.6 0 0 0-6 2 14 14 0 0 0-4.3 5.2 16 16 0 0 0-1.5 7.2 10.8 10.8 0 0 0 2.2 7 7.5 7.5 0 0 0 6 2.8 10 10 0 0 0 6-2zM447.7 19l-2.4 18.2-3-.2a18.8 18.8 0 0 0-11.3 3.4 13.5 13.5 0 0 0-5.7 8.7l-5 25.3H400L411 20h20l-1.4 7.6a23 23 0 0 1 18-8.5z"/>
</svg>
