<svg xmlns="http://www.w3.org/2000/svg" viewBox="0 0 451.31 89.04"><title>logo outline</title><path d="M277.38,238.63a16.93,16.93,0,0,0-.2,1.81,2.42,2.42,0,0,0,.75,2,3.38,3.38,0,0,0,2.16.6,9.62,9.62,0,0,0,3-.5q1.55-.5,4-1.4l2,14.54a26.91,26.91,0,0,1-7.22,2.41,42.37,42.37,0,0,1-8.12.8q-7.92,0-12.48-4a13.42,13.42,0,0,1-4.56-10.68,19.91,19.91,0,0,1,.4-4.11l4.11-21h-7.52l2.61-12.94h7.52l3-15.14H286.9l-3,15.14h13.44l-2.61,12.94H281.29Z" transform="translate(-252.39 -182.58)" style="fill:none;stroke:#fff;stroke-width:2px"/><path d="M345.62,205.84a22.54,22.54,0,0,1,9.63,8.77,25.57,25.57,0,0,1,3.36,13.29,30.5,30.5,0,0,1-4.21,16.1,28.63,28.63,0,0,1-11.78,10.83,37.55,37.55,0,0,1-17.3,3.86,32.68,32.68,0,0,1-14.69-3.11,22.4,22.4,0,0,1-9.63-8.82,25.82,25.82,0,0,1-3.36-13.34,30.32,30.32,0,0,1,4.21-16,28.64,28.64,0,0,1,11.78-10.83,37.56,37.56,0,0,1,17.3-3.86A32.7,32.7,0,0,1,345.62,205.84ZM321.3,222.59a15.2,15.2,0,0,0-3.11,9.93,11.69,11.69,0,0,0,2.36,7.67,7.82,7.82,0,0,0,6.37,2.86,9.93,9.93,0,0,0,8-3.76q3.11-3.76,3.11-9.88a11.9,11.9,0,0,0-2.36-7.72,7.77,7.77,0,0,0-6.37-2.91A9.88,9.88,0,0,0,321.3,222.59Z" transform="translate(-252.39 -182.58)" style="fill:none;stroke:#fff;stroke-width:2px"/><path d="M410.7,205.84a22.54,22.54,0,0,1,9.63,8.77,25.57,25.57,0,0,1,3.36,13.29,30.5,30.5,0,0,1-4.21,16.1,28.63,28.63,0,0,1-11.78,10.83,37.55,37.55,0,0,1-17.3,3.86,32.68,32.68,0,0,1-14.69-3.11,22.4,22.4,0,0,1-9.63-8.82,25.82,25.82,0,0,1-3.36-13.34,30.32,30.32,0,0,1,4.21-16,28.64,28.64,0,0,1,11.78-10.83,37.56,37.56,0,0,1,17.3-3.86A32.7,32.7,0,0,1,410.7,205.84Zm-24.32,16.75a15.2,15.2,0,0,0-3.11,9.93,11.69,11.69,0,0,0,2.36,7.67A7.82,7.82,0,0,0,392,243a9.93,9.93,0,0,0,8-3.76q3.11-3.76,3.11-9.88a11.9,11.9,0,0,0-2.36-7.72,7.77,7.77,0,0,0-6.37-2.91A9.88,9.88,0,0,0,386.38,222.59Z" transform="translate(-252.39 -182.58)" style="fill:none;stroke:#fff;stroke-width:2px"/><path d="M462,183.58L447.15,258H426.89l14.84-74.41H462Z" transform="translate(-252.39 -182.58)" style="fill:none;stroke:#fff;stroke-width:2px"/><path d="M507.81,238.63a17,17,0,0,0-.2,1.81,2.42,2.42,0,0,0,.75,2,3.38,3.38,0,0,0,2.16.6,9.63,9.63,0,0,0,3-.5q1.55-.5,4-1.4l2,14.54a26.93,26.93,0,0,1-7.22,2.41,42.37,42.37,0,0,1-8.12.8q-7.92,0-12.48-4a13.42,13.42,0,0,1-4.56-10.68,20,20,0,0,1,.4-4.11l4.11-21H484l2.61-12.94h7.52l3-15.14h20.16l-3,15.14h13.44l-2.61,12.94H511.72Z" transform="translate(-252.39 -182.58)" style="fill:none;stroke:#fff;stroke-width:2px"/><path d="M562.36,183.58L547.52,258H527.27l14.84-74.41h20.26Z" transform="translate(-252.39 -182.58)" style="fill:none;stroke:#fff;stroke-width:2px"/><path d="M574.9,242.14a8.14,8.14,0,0,1,2.41,6.32q0,3.91-3.21,8.22l-10,13.94h-9.53l6.92-14a7.09,7.09,0,0,1-3.11-6.12,10.3,10.3,0,0,1,3-7.52,9.92,9.92,0,0,1,7.37-3A8.85,8.85,0,0,1,574.9,242.14ZM581,212.46a8.18,8.18,0,0,1,2.36,6.12,10.22,10.22,0,0,1-2.91,7.47,10,10,0,0,1-7.42,3,8.09,8.09,0,0,1-8.52-8.52,9.87,9.87,0,0,1,10.23-10.33A8.58,8.58,0,0,1,581,212.46Z" transform="translate(-252.39 -182.58)" style="fill:none;stroke:#fff;stroke-width:2px"/><path d="M596.26,255.68a20.1,20.1,0,0,1-7.32-8.37,28,28,0,0,1-2.61-12.38,35.33,35.33,0,0,1,3.76-16.3A29.57,29.57,0,0,1,600.42,207a25.91,25.91,0,0,1,14.39-4.26,19.92,19.92,0,0,1,9.73,2.26,15.81,15.81,0,0,1,6.42,6.57l5.51-28h20.26L641.88,258H621.63l1.2-5.92A22.28,22.28,0,0,1,607,258.69,19.51,19.51,0,0,1,596.26,255.68Zm24.82-14.09a13.57,13.57,0,0,0,4.36-5.26,16.35,16.35,0,0,0,1.6-7.22,10.61,10.61,0,0,0-2.31-7.12,7.75,7.75,0,0,0-6.22-2.71,9.67,9.67,0,0,0-5.87,2,14,14,0,0,0-4.26,5.21,16,16,0,0,0-1.6,7.17,10.87,10.87,0,0,0,2.26,7.27,7.55,7.55,0,0,0,6.07,2.66A10.12,10.12,0,0,0,621.08,241.59Z" transform="translate(-252.39 -182.58)" style="fill:none;stroke:#fff;stroke-width:2px"/><path d="M702.55,202.63l-2.41,18.15q-2-.2-3-0.2A18.87,18.87,0,0,0,685.86,224a13.57,13.57,0,0,0-5.77,8.72L675,258H654.72l10.93-54.55h20.26l-1.5,7.72A23,23,0,0,1,702.55,202.63Z" transform="translate(-252.39 -182.58)" style="fill:none;stroke:#fff;stroke-width:2px"/><path d="M277.38,238.63a16.93,16.93,0,0,0-.2,1.81,2.42,2.42,0,0,0,.75,2,3.38,3.38,0,0,0,2.16.6,9.62,9.62,0,0,0,3-.5q1.55-.5,4-1.4l2,14.54a26.91,26.91,0,0,1-7.22,2.41,42.37,42.37,0,0,1-8.12.8q-7.92,0-12.48-4a13.42,13.42,0,0,1-4.56-10.68,19.91,19.91,0,0,1,.4-4.11l4.11-21h-7.52l2.61-12.94h7.52l3-15.14H286.9l-3,15.14h13.44l-2.61,12.94H281.29Z" transform="translate(-252.39 -182.58)" style="fill:#222"/><path d="M345.62,205.84a22.54,22.54,0,0,1,9.63,8.77,25.57,25.57,0,0,1,3.36,13.29,30.5,30.5,0,0,1-4.21,16.1,28.63,28.63,0,0,1-11.78,10.83,37.55,37.55,0,0,1-17.3,3.86,32.68,32.68,0,0,1-14.69-3.11,22.4,22.4,0,0,1-9.63-8.82,25.82,25.82,0,0,1-3.36-13.34,30.32,30.32,0,0,1,4.21-16,28.64,28.64,0,0,1,11.78-10.83,37.56,37.56,0,0,1,17.3-3.86A32.7,32.7,0,0,1,345.62,205.84ZM321.3,222.59a15.2,15.2,0,0,0-3.11,9.93,11.69,11.69,0,0,0,2.36,7.67,7.82,7.82,0,0,0,6.37,2.86,9.93,9.93,0,0,0,8-3.76q3.11-3.76,3.11-9.88a11.9,11.9,0,0,0-2.36-7.72,7.77,7.77,0,0,0-6.37-2.91A9.88,9.88,0,0,0,321.3,222.59Z" transform="translate(-252.39 -182.58)" style="fill:#222"/><path d="M410.7,205.84a22.54,22.54,0,0,1,9.63,8.77,25.57,25.57,0,0,1,3.36,13.29,30.5,30.5,0,0,1-4.21,16.1,28.63,28.63,0,0,1-11.78,10.83,37.55,37.55,0,0,1-17.3,3.86,32.68,32.68,0,0,1-14.69-3.11,22.4,22.4,0,0,1-9.63-8.82,25.82,25.82,0,0,1-3.36-13.34,30.32,30.32,0,0,1,4.21-16,28.64,28.64,0,0,1,11.78-10.83,37.56,37.56,0,0,1,17.3-3.86A32.7,32.7,0,0,1,410.7,205.84Zm-24.32,16.75a15.2,15.2,0,0,0-3.11,9.93,11.69,11.69,0,0,0,2.36,7.67A7.82,7.82,0,0,0,392,243a9.93,9.93,0,0,0,8-3.76q3.11-3.76,3.11-9.88a11.9,11.9,0,0,0-2.36-7.72,7.77,7.77,0,0,0-6.37-2.91A9.88,9.88,0,0,0,386.38,222.59Z" transform="translate(-252.39 -182.58)" style="fill:#222"/><path d="M462,183.58L447.15,258H426.89l14.84-74.41H462Z" transform="translate(-252.39 -182.58)" style="fill:#222"/><path d="M507.81,238.63a17,17,0,0,0-.2,1.81,2.42,2.42,0,0,0,.75,2,3.38,3.38,0,0,0,2.16.6,9.63,9.63,0,0,0,3-.5q1.55-.5,4-1.4l2,14.54a26.93,26.93,0,0,1-7.22,2.41,42.37,42.37,0,0,1-8.12.8q-7.92,0-12.48-4a13.42,13.42,0,0,1-4.56-10.68,20,20,0,0,1,.4-4.11l4.11-21H484l2.61-12.94h7.52l3-15.14h20.16l-3,15.14h13.44l-2.61,12.94H511.72Z" transform="translate(-252.39 -182.58)" style="fill:#e33b3b"/><path d="M562.36,183.58L547.52,258H527.27l14.84-74.41h20.26Z" transform="translate(-252.39 -182.58)" style="fill:#e33b3b"/><path d="M574.9,242.14a8.14,8.14,0,0,1,2.41,6.32q0,3.91-3.21,8.22l-10,13.94h-9.53l6.92-14a7.09,7.09,0,0,1-3.11-6.12,10.3,10.3,0,0,1,3-7.52,9.92,9.92,0,0,1,7.37-3A8.85,8.85,0,0,1,574.9,242.14ZM581,212.46a8.18,8.18,0,0,1,2.36,6.12,10.22,10.22,0,0,1-2.91,7.47,10,10,0,0,1-7.42,3,8.09,8.09,0,0,1-8.52-8.52,9.87,9.87,0,0,1,10.23-10.33A8.58,8.58,0,0,1,581,212.46Z" transform="translate(-252.39 -182.58)" style="fill:#e33b3b"/><path d="M596.26,255.68a20.1,20.1,0,0,1-7.32-8.37,28,28,0,0,1-2.61-12.38,35.33,35.33,0,0,1,3.76-16.3A29.57,29.57,0,0,1,600.42,207a25.91,25.91,0,0,1,14.39-4.26,19.92,19.92,0,0,1,9.73,2.26,15.81,15.81,0,0,1,6.42,6.57l5.51-28h20.26L641.88,258H621.63l1.2-5.92A22.28,22.28,0,0,1,607,258.69,19.51,19.51,0,0,1,596.26,255.68Zm24.82-14.09a13.57,13.57,0,0,0,4.36-5.26,16.35,16.35,0,0,0,1.6-7.22,10.61,10.61,0,0,0-2.31-7.12,7.75,7.75,0,0,0-6.22-2.71,9.67,9.67,0,0,0-5.87,2,14,14,0,0,0-4.26,5.21,16,16,0,0,0-1.6,7.17,10.87,10.87,0,0,0,2.26,7.27,7.55,7.55,0,0,0,6.07,2.66A10.12,10.12,0,0,0,621.08,241.59Z" transform="translate(-252.39 -182.58)" style="fill:#e33b3b"/><path d="M702.55,202.63l-2.41,18.15q-2-.2-3-0.2A18.87,18.87,0,0,0,685.86,224a13.57,13.57,0,0,0-5.77,8.72L675,258H654.72l10.93-54.55h20.26l-1.5,7.72A23,23,0,0,1,702.55,202.63Z" transform="translate(-252.39 -182.58)" style="fill:#e33b3b"/></svg>