<svg xmlns="http://www.w3.org/2000/svg" viewBox="0 0 447.69 86.8"><title>logo</title><path d="M288.3,240.85a16.86,16.86,0,0,0-.2,1.8,2.41,2.41,0,0,0,.75,2,3.37,3.37,0,0,0,2.15.6,9.59,9.59,0,0,0,3-.5q1.55-.5,3.95-1.4l2,14.5a26.85,26.85,0,0,1-7.2,2.4,42.29,42.29,0,0,1-8.1.8q-7.9,0-12.45-3.95a13.38,13.38,0,0,1-4.55-10.65,19.87,19.87,0,0,1,.4-4.1l4.1-20.9h-7.5l2.6-12.9h7.5l3-15.1h20.1l-3,15.1h13.4l-2.6,12.9H292.2Z" transform="translate(-264.6 -185.95)" style="fill:#222"/><path d="M356.35,208.15a22.48,22.48,0,0,1,9.6,8.75,25.5,25.5,0,0,1,3.35,13.25,30.42,30.42,0,0,1-4.2,16A28.55,28.55,0,0,1,353.35,257a37.45,37.45,0,0,1-17.25,3.85,32.59,32.59,0,0,1-14.65-3.1,22.34,22.34,0,0,1-9.6-8.8,25.75,25.75,0,0,1-3.35-13.3,30.23,30.23,0,0,1,4.2-16,28.56,28.56,0,0,1,11.75-10.8,37.46,37.46,0,0,1,17.25-3.85A32.62,32.62,0,0,1,356.35,208.15Zm-24.25,16.7a15.16,15.16,0,0,0-3.1,9.9,11.65,11.65,0,0,0,2.35,7.65,7.8,7.8,0,0,0,6.35,2.85,9.91,9.91,0,0,0,8-3.75q3.1-3.75,3.1-9.85a11.87,11.87,0,0,0-2.35-7.7,7.75,7.75,0,0,0-6.35-2.9A9.85,9.85,0,0,0,332.1,224.85Z" transform="translate(-264.6 -185.95)" style="fill:#222"/><path d="M421.25,208.15a22.48,22.48,0,0,1,9.6,8.75,25.5,25.5,0,0,1,3.35,13.25,30.42,30.42,0,0,1-4.2,16A28.55,28.55,0,0,1,418.25,257,37.45,37.45,0,0,1,401,260.85a32.59,32.59,0,0,1-14.65-3.1,22.34,22.34,0,0,1-9.6-8.8,25.75,25.75,0,0,1-3.35-13.3,30.23,30.23,0,0,1,4.2-16,28.56,28.56,0,0,1,11.75-10.8,37.46,37.46,0,0,1,17.25-3.85A32.62,32.62,0,0,1,421.25,208.15ZM397,224.85a15.16,15.16,0,0,0-3.1,9.9,11.65,11.65,0,0,0,2.35,7.65,7.8,7.8,0,0,0,6.35,2.85,9.91,9.91,0,0,0,8-3.75q3.1-3.75,3.1-9.85a11.87,11.87,0,0,0-2.35-7.7,7.75,7.75,0,0,0-6.35-2.9A9.85,9.85,0,0,0,397,224.85Z" transform="translate(-264.6 -185.95)" style="fill:#222"/><path d="M472.4,186l-14.8,74.2H437.4L452.2,186h20.2Z" transform="translate(-264.6 -185.95)" style="fill:#222"/><path d="M518.1,240.85a16.68,16.68,0,0,0-.2,1.8,2.41,2.41,0,0,0,.75,2,3.37,3.37,0,0,0,2.15.6,9.59,9.59,0,0,0,3-.5q1.55-.5,3.95-1.4l2,14.5a26.84,26.84,0,0,1-7.2,2.4,42.29,42.29,0,0,1-8.1.8q-7.9,0-12.45-3.95a13.38,13.38,0,0,1-4.55-10.65,19.91,19.91,0,0,1,.4-4.1l4.1-20.9h-7.5l2.6-12.9h7.5l3-15.1h20.1l-3,15.1H538l-2.6,12.9H522Z" transform="translate(-264.6 -185.95)" style="fill:#e33b3b"/><path d="M572.5,186l-14.8,74.2H537.5l14.8-74.2h20.2Z" transform="translate(-264.6 -185.95)" style="fill:#e33b3b"/><path d="M585,244.35a8.12,8.12,0,0,1,2.4,6.3q0,3.9-3.2,8.2l-10,13.9h-9.5l6.9-14a7.07,7.07,0,0,1-3.1-6.1,10.27,10.27,0,0,1,3-7.5,9.88,9.88,0,0,1,7.35-3A8.82,8.82,0,0,1,585,244.35Zm6-29.6a8.16,8.16,0,0,1,2.35,6.1,10.19,10.19,0,0,1-2.9,7.45,9.93,9.93,0,0,1-7.4,3,8.07,8.07,0,0,1-8.5-8.5,9.85,9.85,0,0,1,10.2-10.3A8.55,8.55,0,0,1,591,214.75Z" transform="translate(-264.6 -185.95)" style="fill:#e33b3b"/><path d="M606.29,257.85a20,20,0,0,1-7.3-8.35,27.91,27.91,0,0,1-2.6-12.35,35.23,35.23,0,0,1,3.75-16.25,29.5,29.5,0,0,1,10.3-11.6,25.84,25.84,0,0,1,14.35-4.25,19.87,19.87,0,0,1,9.7,2.25,15.77,15.77,0,0,1,6.4,6.55l5.5-27.9h20.2l-14.8,74.2h-20.2l1.2-5.9a22.22,22.22,0,0,1-15.8,6.6A19.46,19.46,0,0,1,606.29,257.85ZM631,243.8a13.52,13.52,0,0,0,4.35-5.25,16.3,16.3,0,0,0,1.6-7.2,10.57,10.57,0,0,0-2.3-7.1,7.73,7.73,0,0,0-6.2-2.7,9.64,9.64,0,0,0-5.85,2,14,14,0,0,0-4.25,5.2,16,16,0,0,0-1.6,7.15A10.84,10.84,0,0,0,619,243.1a7.53,7.53,0,0,0,6,2.65A10.09,10.09,0,0,0,631,243.8Z" transform="translate(-264.6 -185.95)" style="fill:#e33b3b"/><path d="M712.29,205l-2.4,18.1q-2-.2-3-0.2a18.82,18.82,0,0,0-11.25,3.4,13.53,13.53,0,0,0-5.75,8.7l-5.1,25.2h-20.2l10.9-54.4h20.2l-1.5,7.7A22.92,22.92,0,0,1,712.29,205Z" transform="translate(-264.6 -185.95)" style="fill:#e33b3b"/></svg>