<svg xmlns="http://www.w3.org/2000/svg" viewBox="0 0 451.3 89">
  <path fill="none" stroke="#fff" stroke-width="6" d="M25 56a17 17 0 0 0-.2 2 2.4 2.4 0 0 0 .7 2 3.4 3.4 0 0 0 2.2.5 9.6 9.6 0 0 0 3-.5l4-1.4 2 14.5a27 27 0 0 1-7.2 2.5 42.4 42.4 0 0 1-8 .8q-8 0-12.6-4a13.4 13.4 0 0 1-4.7-10.7 20 20 0 0 1 .4-4l4-21H1.4l2.6-13h7.4l3-15.2h20l-3 15.2H45l-2.7 13H29zM93.2 23.3A22.5 22.5 0 0 1 103 32a25.6 25.6 0 0 1 3.2 13.3 30.5 30.5 0 0 1-4.2 16 28.6 28.6 0 0 1-11.8 11A37.5 37.5 0 0 1 73 76 32.7 32.7 0 0 1 58 73a22.4 22.4 0 0 1-9.6-8.8 25.8 25.8 0 0 1-3.3-13.4 30.3 30.3 0 0 1 4.2-16A28.6 28.6 0 0 1 61.2 24a37.6 37.6 0 0 1 17.3-4 32.7 32.7 0 0 1 14.7 3.3zM69 40a15.2 15.2 0 0 0-3.2 10 11.7 11.7 0 0 0 2.4 7.6 7.8 7.8 0 0 0 6.3 3 10 10 0 0 0 8-4q3-3.7 3-9.8a12 12 0 0 0-2.2-7.7 7.8 7.8 0 0 0-6.4-2.8 10 10 0 0 0-8 3.8zM158.3 23.3A22.5 22.5 0 0 1 168 32a25.6 25.6 0 0 1 3.3 13.3 30.5 30.5 0 0 1-4.2 16 28.6 28.6 0 0 1-11.7 11A37.5 37.5 0 0 1 138 76a32.7 32.7 0 0 1-14.7-3 22.4 22.4 0 0 1-9.6-8.8 25.8 25.8 0 0 1-3.4-13.4 30.3 30.3 0 0 1 4.2-16A28.6 28.6 0 0 1 126.3 24a37.6 37.6 0 0 1 17.3-4 32.7 32.7 0 0 1 14.7 3.3zM134 40a15.2 15.2 0 0 0-3 10 11.7 11.7 0 0 0 2.2 7.6 7.8 7.8 0 0 0 6.4 2.8 10 10 0 0 0 8-3.7q3-3.8 3-10a12 12 0 0 0-2.2-7.6 7.8 7.8 0 0 0-6.4-3 10 10 0 0 0-8 4zM209.6 1l-14.8 74.4h-20.3L189.3 1h20.3zM255.4 56a17 17 0 0 0-.2 2 2.4 2.4 0 0 0 .8 2 3.4 3.4 0 0 0 2 .5 9.6 9.6 0 0 0 3-.5l4-1.4 2 14.5a27 27 0 0 1-7 2.5 42.4 42.4 0 0 1-8.2.8q-8 0-12.5-4a13.4 13.4 0 0 1-4.5-10.7 20 20 0 0 1 .4-4l4-21h-7.6l2.6-13h7.5l3-15.2H265l-3 15.2h13.3l-2.6 13h-13.4zM310 1l-15 74.4h-20L289.6 1H310zM322.5 59.6A8 8 0 0 1 325 66q0 3.8-3.3 8l-10 14h-9.5l7-14a7 7 0 0 1-3.2-6 10.3 10.3 0 0 1 3-7.6 10 10 0 0 1 7.4-3 8.8 8.8 0 0 1 6 2.2zm6-29.7a8.2 8.2 0 0 1 2.5 6 10.2 10.2 0 0 1-3 7.5 10 10 0 0 1-7.4 3A8 8 0 0 1 312 38a10 10 0 0 1 10.4-10.4 8.6 8.6 0 0 1 6.2 2.3zM344 73a20 20 0 0 1-7.4-8.3 28 28 0 0 1-2.7-12.4 35.3 35.3 0 0 1 3.7-16.3A29.6 29.6 0 0 1 348 24.4a26 26 0 0 1 14.4-4.2 20 20 0 0 1 9.8 2.2 15.8 15.8 0 0 1 6.4 6.6L384 1h20.3l-14.8 74.4h-20.3l1.2-6a22.3 22.3 0 0 1-15.8 6.7 19.5 19.5 0 0 1-10.7-3zm24.7-14a13.6 13.6 0 0 0 4.4-5.3 16.4 16.4 0 0 0 1.7-7.2 10.6 10.6 0 0 0-2.4-7 7.8 7.8 0 0 0-6.2-2.8 9.7 9.7 0 0 0-5.7 2A14 14 0 0 0 356 44a16 16 0 0 0-1.6 7 11 11 0 0 0 2.3 7.3 7.5 7.5 0 0 0 6 2.7 10 10 0 0 0 6-2zM450.2 20l-2.5 18.2-3-.2a19 19 0 0 0-11.2 3.4 13.6 13.6 0 0 0-5.8 8.7l-5 25.4h-20.4l11-54.5h20.2l-1.5 7.6a23 23 0 0 1 18.2-8.6z"/>
  <path fill="#222" d="M25 56a17 17 0 0 0-.2 2 2.4 2.4 0 0 0 .7 2 3.4 3.4 0 0 0 2.2.5 9.6 9.6 0 0 0 3-.5l4-1.4 2 14.5a27 27 0 0 1-7.2 2.5 42.4 42.4 0 0 1-8 .8q-8 0-12.6-4a13.4 13.4 0 0 1-4.7-10.7 20 20 0 0 1 .4-4l4-21H1.4l2.6-13h7.4l3-15.2h20l-3 15.2H45l-2.7 13H29zM93.2 23.3A22.5 22.5 0 0 1 103 32a25.6 25.6 0 0 1 3.2 13.3 30.5 30.5 0 0 1-4.2 16 28.6 28.6 0 0 1-11.8 11A37.5 37.5 0 0 1 73 76 32.7 32.7 0 0 1 58 73a22.4 22.4 0 0 1-9.6-8.8 25.8 25.8 0 0 1-3.3-13.4 30.3 30.3 0 0 1 4.2-16A28.6 28.6 0 0 1 61.2 24a37.6 37.6 0 0 1 17.3-4 32.7 32.7 0 0 1 14.7 3.3zM69 40a15.2 15.2 0 0 0-3.2 10 11.7 11.7 0 0 0 2.4 7.6 7.8 7.8 0 0 0 6.3 3 10 10 0 0 0 8-4q3-3.7 3-9.8a12 12 0 0 0-2.2-7.7 7.8 7.8 0 0 0-6.4-2.8 10 10 0 0 0-8 3.8zM158.3 23.3A22.5 22.5 0 0 1 168 32a25.6 25.6 0 0 1 3.3 13.3 30.5 30.5 0 0 1-4.2 16 28.6 28.6 0 0 1-11.7 11A37.5 37.5 0 0 1 138 76a32.7 32.7 0 0 1-14.7-3 22.4 22.4 0 0 1-9.6-8.8 25.8 25.8 0 0 1-3.4-13.4 30.3 30.3 0 0 1 4.2-16A28.6 28.6 0 0 1 126.3 24a37.6 37.6 0 0 1 17.3-4 32.7 32.7 0 0 1 14.7 3.3zM134 40a15.2 15.2 0 0 0-3 10 11.7 11.7 0 0 0 2.2 7.6 7.8 7.8 0 0 0 6.4 2.8 10 10 0 0 0 8-3.7q3-3.8 3-10a12 12 0 0 0-2.2-7.6 7.8 7.8 0 0 0-6.4-3 10 10 0 0 0-8 4zM209.6 1l-14.8 74.4h-20.3L189.3 1h20.3z"/>
  <path fill="#e33b3b" d="M255.4 56a17 17 0 0 0-.2 2 2.4 2.4 0 0 0 .8 2 3.4 3.4 0 0 0 2 .5 9.6 9.6 0 0 0 3-.5l4-1.4 2 14.5a27 27 0 0 1-7 2.5 42.4 42.4 0 0 1-8.2.8q-8 0-12.5-4a13.4 13.4 0 0 1-4.5-10.7 20 20 0 0 1 .4-4l4-21h-7.6l2.6-13h7.5l3-15.2H265l-3 15.2h13.3l-2.6 13h-13.4zM310 1l-15 74.4h-20L289.6 1H310zM322.5 59.6A8 8 0 0 1 325 66q0 3.8-3.3 8l-10 14h-9.5l7-14a7 7 0 0 1-3.2-6 10.3 10.3 0 0 1 3-7.6 10 10 0 0 1 7.4-3 8.8 8.8 0 0 1 6 2.2zm6-29.7a8.2 8.2 0 0 1 2.5 6 10.2 10.2 0 0 1-3 7.5 10 10 0 0 1-7.4 3A8 8 0 0 1 312 38a10 10 0 0 1 10.4-10.4 8.6 8.6 0 0 1 6.2 2.3zM344 73a20 20 0 0 1-7.4-8.3 28 28 0 0 1-2.7-12.4 35.3 35.3 0 0 1 3.7-16.3A29.6 29.6 0 0 1 348 24.4a26 26 0 0 1 14.4-4.2 20 20 0 0 1 9.8 2.2 15.8 15.8 0 0 1 6.4 6.6L384 1h20.3l-14.8 74.4h-20.3l1.2-6a22.3 22.3 0 0 1-15.8 6.7 19.5 19.5 0 0 1-10.7-3zm24.7-14a13.6 13.6 0 0 0 4.4-5.3 16.4 16.4 0 0 0 1.7-7.2 10.6 10.6 0 0 0-2.4-7 7.8 7.8 0 0 0-6.2-2.8 9.7 9.7 0 0 0-5.7 2A14 14 0 0 0 356 44a16 16 0 0 0-1.6 7 11 11 0 0 0 2.3 7.3 7.5 7.5 0 0 0 6 2.7 10 10 0 0 0 6-2zM450.2 20l-2.5 18.2-3-.2a19 19 0 0 0-11.2 3.4 13.6 13.6 0 0 0-5.8 8.7l-5 25.4h-20.4l11-54.5h20.2l-1.5 7.6a23 23 0 0 1 18.2-8.6z"/>
</svg>
