<?xml version="1.0" standalone="no"?>
<!DOCTYPE svg PUBLIC "-//W3C//DTD SVG 20010904//EN"
 "http://www.w3.org/TR/2001/REC-SVG-20010904/DTD/svg10.dtd">
<svg version="1.0" xmlns="http://www.w3.org/2000/svg"
 width="600.000000pt" height="600.000000pt" viewBox="0 0 600.000000 600.000000"
 preserveAspectRatio="xMidYMid meet">
<metadata>
Created by potrace 1.11, written by Peter Selinger 2001-2013
</metadata>
<g transform="translate(0.000000,600.000000) scale(0.100000,-0.100000)"
fill="#000000" stroke="none">
<path d="M2403 5432 c-18 -2 -33 -6 -33 -10 0 -4 -7 -38 -15 -77 -9 -38 -17
-82 -20 -96 -3 -14 -12 -61 -20 -105 -9 -43 -18 -90 -21 -104 -2 -14 -7 -36
-10 -50 -3 -14 -8 -36 -10 -50 -3 -14 -22 -113 -44 -220 -21 -107 -42 -211
-45 -230 -3 -19 -8 -42 -10 -50 -2 -8 -7 -31 -10 -50 -3 -19 -8 -37 -11 -39
-3 -3 -125 -5 -271 -6 l-267 0 -38 -185 c-21 -102 -40 -201 -44 -220 -3 -19
-7 -37 -9 -40 -2 -3 -6 -26 -10 -50 -4 -25 -13 -72 -20 -105 -8 -33 -17 -78
-20 -100 -4 -22 -10 -56 -15 -75 -5 -19 -11 -51 -14 -71 -3 -20 -8 -44 -12
-53 -4 -10 -2 -21 4 -25 5 -3 128 -6 271 -6 144 1 261 0 261 -1 0 -2 -7 -36
-16 -76 -9 -40 -18 -86 -21 -103 -2 -16 -11 -61 -19 -100 -13 -60 -55 -276
-70 -355 -3 -14 -25 -126 -49 -250 -24 -124 -47 -236 -49 -250 -3 -14 -16 -83
-31 -155 -14 -71 -28 -146 -31 -165 -3 -19 -10 -51 -15 -71 -29 -113 -29 -415
0 -517 5 -17 8 -32 6 -32 -7 0 42 -134 70 -195 126 -269 429 -487 755 -545 33
-5 72 -13 87 -15 122 -24 465 -23 638 1 285 39 492 93 684 179 l61 28 -5 46
c-3 25 -7 57 -10 71 -2 14 -7 50 -10 80 -4 30 -9 64 -11 75 -2 11 -7 40 -10
65 -3 25 -14 106 -24 180 -11 74 -21 155 -24 180 -3 25 -13 95 -21 155 -9 61
-19 128 -22 150 -3 22 -6 41 -7 42 -1 2 -27 -7 -57 -18 -87 -33 -252 -89 -279
-95 -14 -3 -38 -8 -55 -11 -16 -4 -64 -7 -106 -6 -142 0 -202 52 -203 178 -1
78 2 100 68 425 31 151 58 286 61 300 3 14 34 169 69 345 70 344 75 372 85
425 l6 35 483 0 c475 0 483 0 487 20 11 52 54 263 59 290 3 17 17 86 31 155
14 69 28 136 30 150 2 14 14 70 25 125 12 55 23 113 25 129 3 15 7 36 10 45 5
15 -30 17 -475 16 -449 0 -480 1 -480 17 0 10 22 129 50 265 27 137 52 263 55
282 3 19 8 37 10 40 2 4 6 26 10 51 4 24 24 130 45 235 21 104 37 191 35 193
-4 4 -1371 8 -1412 4z"/>
</g>
</svg>
